<svg xmlns="http://www.w3.org/2000/svg" viewBox="0 0 256 256" width="50" height="50" xmlns:v="https://vecta.io/nano"><path d="M254.612 56.32h-4.352c-5.381 0-10.45 2.509-13.722 6.779l-44.544 58.25-44.544-58.25a17.26 17.26 0 0 0-13.711-6.779h-4.352l56.172 73.452-57.375 75.028h4.352a17.27 17.27 0 0 0 13.716-6.779L192 138.199l45.747 59.822a17.27 17.27 0 0 0 13.716 6.779h4.352l-57.375-75.028zM109 175.319c-13.076 19.871-38.82 30.054-63.432 21.074-21.652-7.9-35.328-29.425-35.328-52.475v-5.678h61.44 0H128v-21.166c0-33.306-24.668-62.464-57.83-65.582C32.118 47.913 0 77.875 0 115.2v28.534c0 27.5 16.461 53.064 42.337 62.377 33.807 12.165 69.366-5.99 81.388-37.151h0-3.267c-4.664 0-8.899 2.463-11.459 6.359zM10.24 115.2c0-29.645 24.115-53.76 53.76-53.76s53.76 24.115 53.76 53.76V128H10.24z" fill="#d4d4d4"/></svg>