<svg xmlns="http://www.w3.org/2000/svg" x="0px" y="0px"
	 viewBox="0 0 256 230" style="enable-background:new 0 0 256 230;" xml:space="preserve">
<path fill='#d4d4d4' d="M255.5,109.3c-1.2-5.8-4.4-11.1-9.4-15.8c-8.4-8-22.2-14.9-41.7-21.4c-0.8-0.3-1.5-0.4-2.3-0.5
	c2-7.5,3.5-14.4,4.3-20.7c2.1-15.5,0.6-28.1-4.9-37.6c-3.3-5.8-8.1-9.9-14-11.9c-5.6-1.9-11.8-1.7-18.4,0.2
	c-11.1,3.3-24,11.8-39.4,25.5c-0.5,0.5-1,1-1.5,1.6c-5.4-5.5-10.7-10.2-15.7-14.1C100.1,5,88.5,0,77.5,0c-6.7,0-12.6,2-17.3,6.2
	c-4.5,3.9-7.4,9.4-9,16.1c-2.7,11.3-1.8,26.8,2.4,47c0.1,0.7,0.4,1.4,0.6,2.1c-7.6,2-14.4,4.2-20.3,6.7c-14.4,6-24.5,13.5-30.1,23
	c-3.3,5.8-4.5,12-3.3,18.1c1.2,5.8,4.4,11.1,9.4,15.8c8.4,8,22.2,14.9,41.7,21.4c0.8,0.3,1.7,0.5,2.5,0.5
	c-2.1,7.8-3.6,14.9-4.5,21.5c-2.1,15.5-0.6,28.1,4.9,37.6c3.3,5.8,8.1,9.9,14,11.9c5.6,1.9,11.8,1.7,18.4-0.2
	c11.1-3.3,24-11.8,39.4-25.5c0.8-0.7,1.5-1.6,2.1-2.4c5.5,5.6,10.8,10.3,15.9,14.3c12.4,9.5,24,14.6,35,14.6c6.7,0,12.6-2,17.3-6.2
	c4.5-3.9,7.4-9.4,9-16.1c2.7-11.3,1.8-26.8-2.4-47c-0.2-0.8-0.4-1.6-0.8-2.4c7.3-2,13.9-4.1,19.7-6.5c14.4-6,24.5-13.5,30.1-23
	C255.6,121.6,256.8,115.4,255.5,109.3z M138.5,33.8L138.5,33.8l0.9-0.8c27.3-23.4,45.1-28.1,53.2-14c8,13.8,5.1,38.8-8.7,75
	c-0.3,0.8-0.9,1.5-1.6,1.9c-1.7,1-3.9,0.4-5-1.3l-0.1-0.1l-0.6-1.1c-5.2-9-10.6-17.5-16.2-25.6c-6.6-9.5-14-19.2-22.3-28.9
	C136.9,37.3,137,35.1,138.5,33.8z M169.9,120.6l-15.9,27.6c-2.3,4-6.6,6.5-11.2,6.5h-31.6c-4.6,0-8.9-2.5-11.2-6.5l-15.9-27.6
	c-2.3-4-2.3-8.9,0-12.8l15.9-27.6c2.3-4,6.6-6.5,11.2-6.5h31.6c4.6,0,8.9,2.5,11.2,6.5l15.9,27.6
	C172.2,111.7,172.2,116.6,169.9,120.6z M77.4,10.6c15.8,0,35.9,15.1,60.4,45.2c0.5,0.7,0.8,1.5,0.8,2.4c0,2-1.6,3.6-3.6,3.7l-0.1,0
	l-1.3,0c-10.3-0.1-20.3,0.3-30,1.1c-11.5,0.9-23.4,2.5-35.9,4.7c-1.9,0.3-3.8-0.9-4.2-2.8l0-0.1l-0.2-1.1
	C56.6,28.2,61.3,10.6,77.4,10.6z M57,143c-0.7,1.8-2.7,2.8-4.5,2.3l-0.1,0l-1-0.4c-33.7-11.7-46.5-24.6-38.4-38.7
	c7.9-13.7,30.9-23.7,69-30c0.8-0.1,1.7,0,2.5,0.5c1.8,1,2.3,3.3,1.3,5C80.3,91,75.4,100.3,71,109.5C66,119.9,61.4,131.1,57,143z
	 M117.5,195.5L117.5,195.5l-0.9,0.8c-27.3,23.4-45.1,28.1-53.2,14c-8-13.8-5.1-38.8,8.7-75c0.3-0.8,0.9-1.5,1.6-1.9
	c1.7-1,3.9-0.4,5,1.3l0.1,0.1l0.6,1.1c5.2,9,10.6,17.5,16.2,25.6c6.6,9.5,14,19.2,22.3,28.9C119.1,191.9,119,194.2,117.5,195.5z
	 M179.9,218.2c-15.8,0-35.9-15.1-60.4-45.2c-0.5-0.7-0.8-1.5-0.8-2.4c0-2,1.6-3.6,3.6-3.7l0.1,0l1.3,0c10.3,0.1,20.3-0.3,30-1.1
	c11.5-0.9,23.4-2.5,35.9-4.7c1.9-0.3,3.8,0.9,4.2,2.8l0,0.1l0.2,1.1C200.8,200.6,196.1,218.2,179.9,218.2z M243.1,121.7
	c-7.9,13.7-30.9,23.7-69,30c-0.8,0.1-1.7,0-2.5-0.5c-1.8-1-2.3-3.3-1.3-5c5.5-9.3,10.4-18.5,14.7-27.7c5-10.4,9.6-21.6,14-33.6
	c0.7-1.8,2.6-2.8,4.4-2.3l0.1,0l0.1,0l1,0.4C238.3,94.7,251.2,107.6,243.1,121.7z"/>
</svg>
