<svg xmlns="http://www.w3.org/2000/svg" viewBox="0 0 256 230" xmlns:v="https://vecta.io/nano"><path fill="#d4d4d4" d="M255.5 109.3c-1.2-5.8-4.4-11.1-9.4-15.8-8.4-8-22.2-14.9-41.7-21.4-.8-.3-1.5-.4-2.3-.5 2-7.5 3.5-14.4 4.3-20.7 2.1-15.5.6-28.1-4.9-37.6-3.3-5.8-8.1-9.9-14-11.9-5.6-1.9-11.8-1.7-18.4.2-11.1 3.3-24 11.8-39.4 25.5-.5.5-1 1-1.5 1.6-5.4-5.5-10.7-10.2-15.7-14.1C100.1 5 88.5 0 77.5 0c-6.7 0-12.6 2-17.3 6.2-4.5 3.9-7.4 9.4-9 16.1-2.7 11.3-1.8 26.8 2.4 47 .1.7.4 1.4.6 2.1-7.6 2-14.4 4.2-20.3 6.7-14.4 6-24.5 13.5-30.1 23-3.3 5.8-4.5 12-3.3 18.1 1.2 5.8 4.4 11.1 9.4 15.8 8.4 8 22.2 14.9 41.7 21.4.8.3 1.7.5 2.5.5-2.1 7.8-3.6 14.9-4.5 21.5-2.1 15.5-.6 28.1 4.9 37.6 3.3 5.8 8.1 9.9 14 11.9 5.6 1.9 11.8 1.7 18.4-.2 11.1-3.3 24-11.8 39.4-25.5.8-.7 1.5-1.6 2.1-2.4 5.5 5.6 10.8 10.3 15.9 14.3 12.4 9.5 24 14.6 35 14.6 6.7 0 12.6-2 17.3-6.2 4.5-3.9 7.4-9.4 9-16.1 2.7-11.3 1.8-26.8-2.4-47-.2-.8-.4-1.6-.8-2.4 7.3-2 13.9-4.1 19.7-6.5 14.4-6 24.5-13.5 30.1-23 3.4-5.9 4.6-12.1 3.3-18.2zm-117-75.5h0l.9-.8c27.3-23.4 45.1-28.1 53.2-14 8 13.8 5.1 38.8-8.7 75-.3.8-.9 1.5-1.6 1.9-1.7 1-3.9.4-5-1.3l-.1-.1-.6-1.1c-5.2-9-10.6-17.5-16.2-25.6-6.6-9.5-14-19.2-22.3-28.9-1.2-1.6-1.1-3.8.4-5.1zm31.4 86.8L154 148.2c-2.3 4-6.6 6.5-11.2 6.5h-31.6c-4.6 0-8.9-2.5-11.2-6.5l-15.9-27.6c-2.3-4-2.3-8.9 0-12.8L100 80.2c2.3-4 6.6-6.5 11.2-6.5h31.6c4.6 0 8.9 2.5 11.2 6.5l15.9 27.6c2.3 3.9 2.3 8.8 0 12.8zm-92.5-110c15.8 0 35.9 15.1 60.4 45.2.5.7.8 1.5.8 2.4 0 2-1.6 3.6-3.6 3.7h-.1-1.3c-10.3-.1-20.3.3-30 1.1-11.5.9-23.4 2.5-35.9 4.7-1.9.3-3.8-.9-4.2-2.8v-.1l-.2-1.1c-6.7-35.5-2-53.1 14.1-53.1zM57 143c-.7 1.8-2.7 2.8-4.5 2.3h-.1l-1-.4C17.7 133.2 4.9 120.3 13 106.2c7.9-13.7 30.9-23.7 69-30 .8-.1 1.7 0 2.5.5 1.8 1 2.3 3.3 1.3 5-5.5 9.3-10.4 18.6-14.8 27.8-5 10.4-9.6 21.6-14 33.5zm60.5 52.5h0l-.9.8c-27.3 23.4-45.1 28.1-53.2 14-8-13.8-5.1-38.8 8.7-75 .3-.8.9-1.5 1.6-1.9 1.7-1 3.9-.4 5 1.3l.1.1.6 1.1c5.2 9 10.6 17.5 16.2 25.6 6.6 9.5 14 19.2 22.3 28.9 1.2 1.5 1.1 3.8-.4 5.1zm62.4 22.7c-15.8 0-35.9-15.1-60.4-45.2-.5-.7-.8-1.5-.8-2.4 0-2 1.6-3.6 3.6-3.7h.1 1.3c10.3.1 20.3-.3 30-1.1 11.5-.9 23.4-2.5 35.9-4.7 1.9-.3 3.8.9 4.2 2.8v.1l.2 1.1c6.8 35.5 2.1 53.1-14.1 53.1zm63.2-96.5c-7.9 13.7-30.9 23.7-69 30-.8.1-1.7 0-2.5-.5-1.8-1-2.3-3.3-1.3-5 5.5-9.3 10.4-18.5 14.7-27.7 5-10.4 9.6-21.6 14-33.6.7-1.8 2.6-2.8 4.4-2.3h.1.1l1 .4c33.7 11.7 46.6 24.6 38.5 38.7z"/></svg>