<svg xmlns="http://www.w3.org/2000/svg" width="94" height="61" fill="#d4d4d4" xmlns:v="https://vecta.io/nano"><path d="M72.732 20.936c-2.677-.842-4.059-.558-6.867-.865-4.34-.473-6.07-2.17-6.803-6.535-.41-2.437.074-6.005-.974-8.215C56.084 1.109 51.394-.78 46.683.298c-3.978.912-7.288 4.887-7.471 8.968-.21 4.659 2.445 8.635 7.004 10.007 2.166.653 4.467.982 6.729 1.148 4.148.302 4.467 2.608 5.589 4.506.707 1.197 1.393 2.376 1.393 5.944s-.69 4.747-1.393 5.944c-1.122 1.894-2.506 3.134-6.654 3.441-2.262.167-4.567.495-6.729 1.149-4.559 1.376-7.213 5.347-7.004 10.007.183 4.081 3.493 8.057 7.471 8.968 4.711 1.083 9.401-.811 11.405-5.023 1.052-2.209 1.629-4.712 2.039-7.149.738-4.366 2.467-6.062 6.803-6.535 2.808-.307 5.713 0 8.344-1.495 2.78-2.031 5.264-5.08 5.264-9.306s-2.677-8.656-6.742-9.936zM28.2 40.774c-5.471 0-9.934-4.471-9.934-9.953s4.463-9.953 9.934-9.953 9.934 4.471 9.934 9.953a9.97 9.97 0 0 1-9.934 9.953zM9.899 61C4.437 60.987-.013 56.498 0 51.012c.013-5.477 4.494-9.935 9.969-9.917 5.467.013 9.916 4.502 9.899 9.988A9.97 9.97 0 0 1 9.899 61zm73.815 0a9.97 9.97 0 0 1-10.008-9.878c-.031-5.49 4.402-9.996 9.859-10.027a9.97 9.97 0 0 1 10.008 9.878c.031 5.486-4.401 9.996-9.859 10.027z"/></svg>