<?xml version="1.0" encoding="utf-8"?>
<!-- Generator: Adobe Illustrator 27.3.1, SVG Export Plug-In . SVG Version: 6.00 Build 0)  -->
<svg version="1.1" fill='white' id="Layer_1" xmlns="http://www.w3.org/2000/svg" xmlns:xlink="http://www.w3.org/1999/xlink" x="0px" y="0px"
	 viewBox="0 0 370 280" style="enable-background:new 0 0 370 280;" xml:space="preserve">
<path d="M237.77,275.24c-27.45-0.94-54.59-3.89-81.43-9.1c-22.25-4.31-44.28-9.74-66.55-13.97c-16.03-3.04-32.32-4.67-48.41-7.41
	c-8.32-1.41-16.5-3.7-24.66-5.93c-2.82-0.77-5.53-2.33-8-3.96c-9.33-6.15-10.83-17.32-3.54-25.87c5.34-6.26,12.46-9.87,19.93-12.82
	c17.42-6.89,35.72-9.93,54.22-11.95c7.06-0.77,14.17-1.19,21.26-1.52c2.21-0.1,2.92-1.13,3.6-2.94
	c17.64-47.4,41.56-91.41,72.16-131.67c6.99-9.19,15.24-17.47,23.33-25.75c11.39-11.65,25.74-16.06,41.8-17.24
	c30.25-2.22,57.21,5.7,81.25,24.01c2.08,1.58,4.4,3.01,6.07,4.96c13.7,16.03,23.79,34.1,29.52,54.43c0.73,2.58,0.73,6.62-0.79,8.3
	c-2.56,2.82-6.33,0.9-9.27-0.82c-2.57-1.5-4.98-3.3-7.34-5.13c-2.96-2.29-5.89-4.63-8.65-7.16c-8.98-8.24-19.2-9.78-30.16-5.13
	c-9.73,4.13-19.21,8.87-28.74,13.45c-2.52,1.21-4.5,2.11-6.77-0.74c-1.06-1.33-3.46-1.86-5.35-2.19c-2.31-0.4-4.72-0.21-7.09-0.26
	c-4.04-0.07-6.54-2.03-7.43-6c-0.14-0.61-0.3-1.21-0.49-1.8c-0.82-2.52-2.59-3.69-5.16-3.2c-2.64,0.5-3.61,2.41-3.49,4.97
	c0.34,7.28,6,13.59,13.26,14.56c2.45,0.33,4.96,0.27,7.45,0.32c4.1,0.07,5.93,1.37,6.13,4.91c1.22,21.14,6.25,41.64,10.29,62.3
	c1.08,5.5,2.49,10.97,3.15,16.52c0.25,2.16-0.45,5.4-1.96,6.62c-4.19,3.39-8.87,6.28-13.66,8.79c-3.21,1.68-4.79,3.38-3.75,6.13
	c1.02,2.71,3.55,3.69,6.83,2.27c6.96-3.02,13.09-7.15,17.5-13.55c0.6-0.87,2.2-1.76,3.14-1.59c22.91,4.31,45.79,8.83,67.01,19.03
	c3.99,1.92,7.79,4.52,11.15,7.42c6.55,5.65,7.09,12.27,1.27,18.62c-3.4,3.71-7.44,7.15-11.8,9.63
	c-23.71,13.48-49.03,22.82-76.01,26.91C264.44,273.7,251.05,274.11,237.77,275.24z M204.2,223.93c6.24,0,12.47,0.02,18.71-0.01
	c2.92-0.01,4.93-1.42,4.94-4.42c0.01-3.21-2.1-4.58-5.19-4.55c-0.87,0.01-1.75,0.04-2.62,0.05c-18.72,0.35-37.42,0.22-56.01-2.37
	c-11.74-1.64-23.43-3.57-33.88-9.76c-3.45-2.04-6.13-1.81-7.42,0.84c-1.51,3.1-0.16,5.5,2.69,6.74c6.03,2.63,12.01,5.6,18.32,7.3
	C163.52,223.05,183.85,223.92,204.2,223.93z"/>
</svg>
